<svg width="48" height="48" xmlns="http://www.w3.org/2000/svg"><g fill-rule="nonzero"><path d="M.003 43.671c.141-1.003.402-1.986.775-2.926a26.168 26.168 0 011.902-3.842c.35-.597.714-1.219 1.077-1.78a1.62 1.62 0 01.146-.195v.159c-.243.548-.509 1.085-.751 1.634a29.193 29.193 0 00-1.32 3.414 17.522 17.522 0 00-.618 2.317 6.937 6.937 0 000 1.89c.046.388.174.763.376 1.097.187.291.477.5.811.586.399.09.812.09 1.211 0a6.385 6.385 0 001.514-.452 15.333 15.333 0 002.64-1.426 36.15 36.15 0 003.863-2.963 60.832 60.832 0 005.122-5.049 69.29 69.29 0 004.541-5.475 79.96 79.96 0 003.1-4.414l.327-.5c.031-.039.06-.08.085-.122.084.023.16.07.218.134l2.24 1.83 1.38 1.109.23.207a.866.866 0 01-.12.171 89.747 89.747 0 01-3.27 3.731 74.505 74.505 0 01-4.844 4.744c-1.707 1.524-3.173 2.817-4.844 4.121a54.047 54.047 0 01-4.529 3.305A29.48 29.48 0 017.5 47c-.877.395-1.795.69-2.737.878l-.484.073-.157.049H2.97l-.388-.085a3.172 3.172 0 01-2.422-2.44c0-.158 0-.328-.097-.487a9.282 9.282 0 01-.06-1.317zM47.994 5.46a2.418 2.418 0 000 .289v.627c.009.04.009.08 0 .12a5.394 5.394 0 01-.505-.554l-.697-.567-.505-.554-.529-.506a8.128 8.128 0 00-.577-.506c-.18-.17-.372-.326-.564-.483l-.601-.458a6.898 6.898 0 00-.601-.433l-.613-.41c-.216-.145-.433-.265-.649-.398-.216-.133-.432-.229-.649-.386a.552.552 0 01.12-.036 15.445 15.445 0 012.512-.783A16.587 16.587 0 0146.696 0H47.513c0 .18.084.362.108.542.146.716.238 1.44.276 2.17a1.209 1.209 0 000 .205l.097 2.543zM26.527 21.954v-.182c.454-1.215.896-2.528 1.362-3.78.311-.81.63-1.62.958-2.43.577-1.435 1.227-2.845 1.878-4.23a22.944 22.944 0 015.155-6.54 20.28 20.28 0 014.21-2.807h.148l.16.073c.855.417 1.676.9 2.454 1.446A20.193 20.193 0 0147.48 7.88c.184.23.184.23.123.51a20.87 20.87 0 01-1.007 3.44c-.373.974-.816 1.92-1.325 2.832a22.888 22.888 0 01-2.247 3.282c-.783.96-1.65 1.85-2.59 2.661a63.163 63.163 0 01-3.302 2.674l-.233.146-.11.085a3.753 3.753 0 01-.712.535.294.294 0 00-.099.073 5.996 5.996 0 01-.834.632l-.553.365-.343.23-.099.061c-.22.202-.462.378-.724.523-.307.194-.589.45-.896.632l-.22.146a5.427 5.427 0 01-.565-.462l-.27-.219-.688-.571s-.086-.097-.135-.122a7.044 7.044 0 01-.81-.656l-.614-.498-.478-.377-2.087-1.714-.135-.134zM38.274 8.27a3.468 3.468 0 00-1.228.194 4.091 4.091 0 00-2.455 1.993 4.398 4.398 0 00-.442 3.1 4.148 4.148 0 002.185 2.941 3.839 3.839 0 003.45.134 4.069 4.069 0 002.172-2.115 4.485 4.485 0 00-.589-4.716 4.04 4.04 0 00-3.093-1.531zM35.07 33.925a642.087 642.087 0 01-1.325-6.87v-.11l.243-.172c.34-.245.668-.503 1.021-.735.352-.233.401-.294.596-.441l1.033-.772.194-.122.098-.061c.32-.29.656-.56 1.008-.809l1.58-1.36s.11-.097.195-.097 0 .098 0 .147c.146.808.316 1.604.45 2.45a3.696 3.696 0 01-.644 2.95l-3.744 5.071-.632.845-.073.086zM19.309 21.113l.098-.172 3.875-5.154.531-.723c.32-.454.742-.827 1.234-1.09.386-.188.805-.3 1.234-.33l2.407-.11h.185v.098c-.975 2.35-1.851 4.8-2.654 7.162h-.098l-6.603.27-.21.049zM31.94 27.595c-.222.654-.445 1.284-.668 1.914l-.062.085a.509.509 0 01-.136-.085l-3.156-2.568-.619-.46-.247-.219a24.547 24.547 0 00-.879-.702 4.779 4.779 0 01-.383-.315c-.1-.097-.223-.17-.322-.255-.335-.25-.658-.517-.965-.8a.667.667 0 00-.149-.108l-.111-.085-.062-.085a.89.89 0 01.099-.109l1.56-1.066c.073 0 .123.06.172.097l2.674 2.168 1.002.812.346.315.075.06c.52.352.977.788 1.472 1.212l.36.194z"/><path d="M38.374 9.384c.754.02 1.47.341 1.986.894a3.265 3.265 0 01.89 3.006 3.09 3.09 0 01-1.468 2.148 2.87 2.87 0 01-3.419-.253 3.252 3.252 0 01-1.107-3.163c.114-.74.49-1.412 1.06-1.895a3.028 3.028 0 012.058-.737z"/></g></svg>
