<?xml version="1.0" standalone="no"?>
<!DOCTYPE svg PUBLIC "-//W3C//DTD SVG 20010904//EN"
 "http://www.w3.org/TR/2001/REC-SVG-20010904/DTD/svg10.dtd">
<svg version="1.0" xmlns="http://www.w3.org/2000/svg"
 width="300.000000pt" height="300.000000pt" viewBox="0 0 300.000000 300.000000"
 preserveAspectRatio="xMidYMid meet">
<metadata>
Created by potrace 1.11, written by Peter Selinger 2001-2013
</metadata>
<g transform="translate(0.000000,300.000000) scale(0.100000,-0.100000)"
fill="#000000" stroke="none">
<path d="M2650 2814 c-84 -18 -170 -45 -170 -53 0 -3 32 -26 71 -51 60 -38
154 -118 257 -218 l24 -23 -6 138 c-5 129 -10 181 -21 211 -6 16 -71 14 -155
-4z"/>
<path d="M2326 2684 c-197 -118 -362 -300 -468 -517 -62 -126 -218 -521 -218
-551 0 -3 56 -50 123 -105 68 -54 130 -105 138 -113 60 -56 50 -56 141 8 81
56 253 185 313 234 17 13 71 65 120 115 149 148 255 328 311 527 l27 96 -40
49 c-47 55 -129 134 -190 181 -49 38 -173 112 -188 112 -5 -1 -37 -17 -69 -36z
m49 -333 c153 -70 188 -275 69 -395 -113 -112 -300 -73 -363 75 -42 97 -24
196 49 269 68 69 163 89 245 51z"/>
<path d="M2231 2296 c-19 -7 -49 -29 -67 -50 -59 -68 -56 -169 7 -241 126
-143 351 24 270 200 -41 90 -120 124 -210 91z"/>
<path d="M1602 2069 c-57 -12 -90 -44 -217 -213 -71 -95 -130 -177 -133 -184
-3 -9 19 -11 85 -6 48 3 133 6 187 8 l99 3 24 69 c29 82 77 210 104 276 10 26
19 49 19 52 0 7 -128 3 -168 -5z"/>
<path d="M2325 1553 c-22 -19 -92 -73 -155 -120 -63 -47 -118 -89 -123 -92 -4
-4 -3 -32 3 -62 6 -30 13 -67 16 -84 32 -180 48 -246 57 -234 12 15 179 243
209 284 67 95 76 130 57 238 -18 111 -18 111 -64 70z"/>
<path d="M1553 1537 c-51 -36 -64 -18 122 -167 72 -57 132 -107 135 -110 3 -3
24 -20 47 -39 31 -23 44 -29 48 -19 2 7 11 32 19 55 l15 42 -167 135 c-92 75
-169 136 -172 135 -3 0 -24 -15 -47 -32z"/>
<path d="M1464 1292 c-71 -106 -225 -306 -314 -407 -100 -114 -334 -339 -435
-418 -183 -143 -337 -210 -420 -184 -31 10 -57 63 -59 120 -4 87 39 238 111
396 18 40 32 75 30 77 -12 12 -155 -270 -188 -371 -20 -63 -18 -193 5 -235 40
-74 102 -105 194 -97 72 7 82 9 166 41 299 113 833 555 1199 992 18 22 17 23
-60 85 -43 35 -80 66 -83 69 -3 3 -19 16 -36 28 l-31 21 -79 -117z"/>
</g>
</svg>
